Coordinates
version=1
nRows=13
nColumns=38
inDegrees=no

Units are S.I. units (second, meters, Newtons, ...)
If the header above contains a line with 'inDegrees', this indicates whether rotational values are in degrees (yes) or radians (no).

endheader
time	pelvis_tilt	pelvis_list	pelvis_rotation	pelvis_tx	pelvis_ty	pelvis_tz	hip_flexion_r	hip_adduction_r	hip_rotation_r	knee_angle_r	ankle_angle_r	subtalar_angle_r	mtp_angle_r	hip_flexion_l	hip_adduction_l	hip_rotation_l	knee_angle_l	ankle_angle_l	subtalar_angle_l	mtp_angle_l	lumbar_extension	lumbar_bending	lumbar_rotation	arm_flex_r	arm_add_r	arm_rot_r	elbow_flex_r	pro_sup_r	wrist_flex_r	wrist_dev_r	arm_flex_l	arm_add_l	arm_rot_l	elbow_flex_l	pro_sup_l	wrist_flex_l	wrist_dev_l
23.88	1.15072	1.20204	0.36049	0.541078	-0.523204	0.978786	0.196743	-0.0599686	-0.238615	0.423748	0.0752068	0	0	0.196909	-0.362326	-0.41721	0.193802	0.0988371	0	0	-0.235473	-0.237707	0.0552106	0.367917	-0.625382	0.0364374	0.94336	1.16965	0	0	0.823347	0.328618	0.798311	0.860263	1.5708	0	0
23.89	1.15175	1.20191	0.359798	0.540188	-0.522699	0.978893	0.195783	-0.0590578	-0.242944	0.425403	0.0760989	0	0	0.196763	-0.361964	-0.417421	0.195134	0.0994298	0	0	-0.235898	-0.236388	0.0528597	0.368198	-0.624527	0.0376694	0.944794	1.17527	0	0	0.821829	0.328109	0.796872	0.861308	1.5708	0	0
23.9	1.15225	1.2018	0.359225	0.539377	-0.522287	0.979017	0.194972	-0.0577367	-0.246561	0.426441	0.076594	0	0	0.196579	-0.361464	-0.417829	0.195911	0.0992503	0	0	-0.236247	-0.235028	0.05113	0.368184	-0.623803	0.0383051	0.946909	1.18155	0	0	0.820697	0.327908	0.795386	0.8617	1.5708	0	0
23.91	1.08476	1.22335	0.438123	0.53706	-0.522639	0.976499	0.204796	-0.0884066	-0.234776	0.418577	0.0842202	0	0	0.213197	-0.330441	-0.459736	0.186667	0.0960736	0	0	-0.226196	-0.261907	0.0290168	0.362699	-0.620965	0.034769	0.951826	1.19014	0	0	0.820952	0.326018	0.800142	0.862752	1.5708	0	0
23.92	1.14708	1.20251	0.361831	0.538209	-0.521838	0.97917	0.19661	-0.0556388	-0.249983	0.429014	0.0765226	0	0	0.197954	-0.359812	-0.420491	0.199166	0.099821	0	0	-0.234924	-0.234169	0.0502919	0.366609	-0.62227	0.036836	0.953164	1.19804	0	0	0.819683	0.327378	0.79438	0.861846	1.5708	0	0
23.93	1.15097	1.20284	0.358529	0.537604	-0.52161	0.979344	0.194108	-0.0532463	-0.252509	0.428344	0.075916	0	0	0.196818	-0.359723	-0.419558	0.200432	0.10035	0	0	-0.236965	-0.232234	0.0490033	0.365822	-0.622282	0.0363733	0.957135	1.20525	0	0	0.819494	0.327731	0.792723	0.861841	1.5708	0	0
23.94	1.15111	1.20358	0.358083	0.537115	-0.521423	0.979443	0.193092	-0.0512948	-0.253081	0.42775	0.0753885	0	0	0.196546	-0.358893	-0.419695	0.2015	0.100637	0	0	-0.237578	-0.231163	0.0484139	0.364637	-0.621673	0.0337703	0.960807	1.21846	0	0	0.818994	0.327992	0.791218	0.86234	1.5708	0	0
23.95	1.14988	1.2044	0.35832	0.536725	-0.521308	0.979504	0.192569	-0.0490162	-0.251814	0.426361	0.074126	0	0	0.196548	-0.357972	-0.420324	0.202591	0.10083	0	0	-0.237545	-0.230319	0.0485312	0.363603	-0.620779	0.0302478	0.963732	1.23414	0	0	0.81847	0.328251	0.789688	0.863047	1.5708	0	0
23.96	1.14863	1.20534	0.358419	0.536423	-0.521212	0.979523	0.192029	-0.0466547	-0.250145	0.424622	0.0729796	0	0	0.196595	-0.357145	-0.421167	0.20409	0.101357	0	0	-0.237363	-0.229505	0.0489623	0.362102	-0.6203	0.0275461	0.967169	1.24526	0	0	0.817808	0.328556	0.787835	0.863911	1.5708	0	0
23.97	1.1479	1.20625	0.35848	0.536158	-0.521076	0.979491	0.191098	-0.0441677	-0.249078	0.422566	0.0720559	0	0	0.19672	-0.356456	-0.42155	0.205897	0.102256	0	0	-0.237195	-0.228354	0.0490968	0.360189	-0.619998	0.0250554	0.970787	1.25407	0	0	0.816828	0.328674	0.785798	0.865158	1.5708	0	0
23.98	1.14545	1.20739	0.359014	0.536031	-0.521078	0.979415	0.191339	-0.0417672	-0.246411	0.421102	0.0713949	0	0	0.196997	-0.35554	-0.42322	0.207649	0.103201	0	0	-0.236464	-0.227566	0.0500937	0.358772	-0.619782	0.0228151	0.974572	1.2609	0	0	0.815745	0.328557	0.783036	0.867105	1.5708	0	0
23.99	1.1417	1.20869	0.359951	0.53603	-0.521186	0.979308	0.192326	-0.0394013	-0.242705	0.41976	0.0705964	0	0	0.197242	-0.354328	-0.425337	0.209052	0.104013	0	0	-0.235307	-0.226995	0.0517406	0.35791	-0.619532	0.020655	0.978199	1.26582	0	0	0.814457	0.328184	0.779554	0.869895	1.5708	0	0
24	1.14097	1.20966	0.360551	0.53593	-0.520998	0.979174	0.190643	-0.0366488	-0.242644	0.416025	0.0694461	0	0	0.197212	-0.353337	-0.425638	0.209976	0.105016	0	0	-0.234821	-0.225061	0.05126	0.356564	-0.618892	0.0181851	0.981365	1.26955	0	0	0.812087	0.327566	0.775505	0.873061	1.5708	0	0
